<?xml version="1.0" encoding="UTF-8" standalone="no"?>
<!-- Generator: Adobe Illustrator 19.0.0, SVG Export Plug-In . SVG Version: 6.00 Build 0)  -->

<svg
   xmlns:dc="http://purl.org/dc/elements/1.1/"
   xmlns:cc="http://creativecommons.org/ns#"
   xmlns:rdf="http://www.w3.org/1999/02/22-rdf-syntax-ns#"
   xmlns:svg="http://www.w3.org/2000/svg"
   xmlns="http://www.w3.org/2000/svg"
   xmlns:sodipodi="http://sodipodi.sourceforge.net/DTD/sodipodi-0.dtd"
   xmlns:inkscape="http://www.inkscape.org/namespaces/inkscape"
   version="1.1"
   id="Layer_1"
   x="0px"
   y="0px"
   viewBox="0 0 434.147 434.147"
   style="enable-background:new 0 0 434.147 434.147;"
   xml:space="preserve"
   inkscape:version="0.91 r13725"
   sodipodi:docname="html5.svg"><metadata
     id="metadata39"><rdf:RDF><cc:Work
         rdf:about=""><dc:format>image/svg+xml</dc:format><dc:type
           rdf:resource="http://purl.org/dc/dcmitype/StillImage" /></cc:Work></rdf:RDF></metadata><defs
     id="defs37" /><sodipodi:namedview
     pagecolor="#ffffff"
     bordercolor="#666666"
     borderopacity="1"
     objecttolerance="10"
     gridtolerance="10"
     guidetolerance="10"
     inkscape:pageopacity="0"
     inkscape:pageshadow="2"
     inkscape:window-width="1440"
     inkscape:window-height="835"
     id="namedview35"
     showgrid="false"
     inkscape:zoom="1.3271354"
     inkscape:cx="216.32"
     inkscape:cy="217.0735"
     inkscape:window-x="0"
     inkscape:window-y="0"
     inkscape:window-maximized="1"
     inkscape:current-layer="Layer_1" /><path
     style="fill:#fc490b"
     d="m 103.23103,95.45265 16.9062,216.2844 c 0.2538,3.2478 2.4522,6.0174 5.5578,7.002 l 88.9608,28.2048 c 1.5732,0.4986 3.2622,0.4986 4.8354,0 l 88.9608,-28.2048 c 3.1056,-0.9846 5.304,-3.7542 5.5578,-7.002 l 16.9062,-216.2844 c 0.3636,-4.65 -3.3114,-8.6232 -7.9752,-8.6232 l -211.734,0 c -4.6638,0 -8.3388,3.9732 -7.9758,8.6232 z m 184.3302,67.1058 -110.181,0 3.3252,30.663 104.4594,0 -6.8334,87.4158 -61.2576,19.4214 -61.2576,-19.4214 -3.57,-45.6696 32.1528,0 0,22.4016 33.534,9 33.3336,-9 2.586,-35.7018 -102.6462,0 -6.8148,-87.1866 145.3638,0 -2.1942,28.0776 z"
     id="path3"
     inkscape:connector-curvature="0" /><g
     id="g5" /><g
     id="g7" /><g
     id="g9" /><g
     id="g11" /><g
     id="g13" /><g
     id="g15" /><g
     id="g17" /><g
     id="g19" /><g
     id="g21" /><g
     id="g23" /><g
     id="g25" /><g
     id="g27" /><g
     id="g29" /><g
     id="g31" /><g
     id="g33" /></svg>